<svg width="728pt" height="44pt" viewBox="0.00 0.00 728.00 44.00" xmlns="http://www.w3.org/2000/svg" xmlns:xlink="http://www.w3.org/1999/xlink">
<g id="graph1" class="graph" transform="scale(1 1) rotate(0) translate(4 40)">
<title>_anonymous_0</title>
<polygon fill="white" stroke="white" points="-4,5 -4,-40 725,-40 725,5 -4,5"></polygon>
<!-- root -->
<g id="node1" class="node"><title>root</title>
<ellipse fill="none" stroke="black" cx="27" cy="-18" rx="27" ry="18"></ellipse>
<text text-anchor="middle" x="27" y="-13.8" font-family="Times,serif" font-size="14.00">root</text>
</g>
<!-- catalog#1 -->
<g id="node3" class="node"><title>catalog#1</title>
<ellipse fill="none" stroke="black" cx="139" cy="-18" rx="48.6559" ry="18"></ellipse>
<text text-anchor="middle" x="139" y="-13.8" font-family="Times,serif" font-size="14.00">catalog#1</text>
</g>
<!-- root&#45;&gt;catalog#1 -->
<g id="edge2" class="edge"><title>root-&gt;catalog#1</title>
<path fill="none" stroke="black" d="M54.0685,-18C61.9157,-18 70.8614,-18 79.9188,-18"></path>
<polygon fill="black" stroke="black" points="80.1399,-21.5001 90.1399,-18 80.1398,-14.5001 80.1399,-21.5001"></polygon>
</g>
<!-- pages#2 -->
<g id="node5" class="node"><title>pages#2</title>
<ellipse fill="none" stroke="black" cx="267" cy="-18" rx="42.8596" ry="18"></ellipse>
<text text-anchor="middle" x="267" y="-13.8" font-family="Times,serif" font-size="14.00">pages#2</text>
</g>
<!-- catalog#1&#45;&gt;pages#2 -->
<g id="edge4" class="edge"><title>catalog#1-&gt;pages#2</title>
<path fill="none" stroke="black" d="M187.635,-18C196.251,-18 205.274,-18 214.007,-18"></path>
<polygon fill="black" stroke="black" points="214.082,-21.5001 224.082,-18 214.082,-14.5001 214.082,-21.5001"></polygon>
</g>
<!-- page#3 -->
<g id="node7" class="node"><title>page#3</title>
<ellipse fill="none" stroke="black" cx="385" cy="-18" rx="38.8478" ry="18"></ellipse>
<text text-anchor="middle" x="385" y="-13.8" font-family="Times,serif" font-size="14.00">page#3</text>
</g>
<!-- pages#2&#45;&gt;page#3 -->
<g id="edge6" class="edge"><title>pages#2-&gt;page#3</title>
<path fill="none" stroke="black" d="M306.949,-11.5846C317.019,-11.2186 327.952,-11.1528 338.331,-11.3875"></path>
<polygon fill="black" stroke="black" points="338.364,-14.8904 348.475,-11.7222 338.595,-7.89418 338.364,-14.8904"></polygon>
</g>
<!-- page#3&#45;&gt;pages#2 -->
<g id="edge8" class="edge"><title>page#3-&gt;pages#2</title>
<path fill="none" stroke="black" d="M348.475,-24.2778C338.62,-24.7127 327.742,-24.8472 317.254,-24.6813"></path>
<polygon fill="black" stroke="black" points="317.036,-21.1746 306.949,-24.4154 316.855,-28.1723 317.036,-21.1746"></polygon>
</g>
<!-- content#4 -->
<g id="node10" class="node"><title>content#4</title>
<ellipse fill="none" stroke="black" cx="509" cy="-18" rx="49.2396" ry="18"></ellipse>
<text text-anchor="middle" x="509" y="-13.8" font-family="Times,serif" font-size="14.00">content#4</text>
</g>
<!-- page#3&#45;&gt;content#4 -->
<g id="edge10" class="edge"><title>page#3-&gt;content#4</title>
<path fill="none" stroke="black" d="M423.933,-18C432.077,-18 440.865,-18 449.583,-18"></path>
<polygon fill="black" stroke="black" points="449.741,-21.5001 459.741,-18 449.741,-14.5001 449.741,-21.5001"></polygon>
</g>
<!-- Hello World! -->
<g id="node12" class="node"><title>Hello World!</title>
<ellipse fill="none" stroke="black" cx="657" cy="-18" rx="62.5807" ry="18"></ellipse>
<text text-anchor="middle" x="657" y="-13.8" font-family="Times,serif" font-size="14.00">Hello World!</text>
</g>
<!-- content#4&#45;&gt;Hello World! -->
<g id="edge12" class="edge"><title>content#4-&gt;Hello World!</title>
<path fill="none" stroke="black" d="M558.21,-18C566.449,-18 575.165,-18 583.866,-18"></path>
<polygon fill="black" stroke="black" points="584.042,-21.5001 594.042,-18 584.041,-14.5001 584.042,-21.5001"></polygon>
</g>
</g>
</svg>