<svg width="782pt" height="98pt" viewBox="0.00 0.00 782.00 98.00" xmlns="http://www.w3.org/2000/svg" xmlns:xlink="http://www.w3.org/1999/xlink">
<g id="graph1" class="graph" transform="scale(1 1) rotate(0) translate(4 94)">
<title>_anonymous_0</title>
<polygon fill="white" stroke="white" points="-4,5 -4,-94 779,-94 779,5 -4,5"></polygon>
<!-- trailer -->
<g id="node1" class="node"><title>trailer</title>
<ellipse fill="none" stroke="black" cx="34" cy="-45" rx="34.1813" ry="18"></ellipse>
<text text-anchor="middle" x="34" y="-40.8" font-family="Times,serif" font-size="14.00">trailer</text>
</g>
<!-- catalog#1 -->
<g id="node3" class="node"><title>catalog#1</title>
<ellipse fill="none" stroke="black" cx="158" cy="-72" rx="48.6559" ry="18"></ellipse>
<text text-anchor="middle" x="158" y="-67.8" font-family="Times,serif" font-size="14.00">catalog#1</text>
</g>
<!-- trailer&#45;&gt;catalog#1 -->
<g id="edge2" class="edge"><title>trailer-&gt;catalog#1</title>
<path fill="none" stroke="green" d="M65.7858,-51.8132C77.8234,-54.4773 91.9611,-57.6061 105.465,-60.5946"></path>
<polygon fill="green" stroke="green" points="105.102,-64.099 115.622,-62.8426 106.614,-57.2643 105.102,-64.099"></polygon>
</g>
<!-- catalog#11 -->
<g id="node14" class="node"><title>catalog#11</title>
<ellipse fill="none" stroke="black" cx="158" cy="-18" rx="53.3129" ry="18"></ellipse>
<text text-anchor="middle" x="158" y="-13.8" font-family="Times,serif" font-size="14.00">catalog#11</text>
</g>
<!-- trailer&#45;&gt;catalog#11 -->
<g id="edge14" class="edge"><title>trailer-&gt;catalog#11</title>
<path fill="none" stroke="red" stroke-dasharray="5,2" d="M65.7858,-38.1868C77.037,-35.6967 90.1229,-32.8007 102.811,-29.9927"></path>
<polygon fill="red" stroke="red" points="103.851,-33.3473 112.858,-27.7691 102.338,-26.5127 103.851,-33.3473"></polygon>
</g>
<!-- pages#2 -->
<g id="node5" class="node"><title>pages#2</title>
<ellipse fill="none" stroke="black" cx="296" cy="-72" rx="42.8596" ry="18"></ellipse>
<text text-anchor="middle" x="296" y="-67.8" font-family="Times,serif" font-size="14.00">pages#2</text>
</g>
<!-- catalog#1&#45;&gt;pages#2 -->
<g id="edge4" class="edge"><title>catalog#1-&gt;pages#2</title>
<path fill="none" stroke="black" d="M206.949,-72C218.542,-72 230.989,-72 242.768,-72"></path>
<polygon fill="black" stroke="black" points="242.909,-75.5001 252.909,-72 242.909,-68.5001 242.909,-75.5001"></polygon>
</g>
<!-- page#3 -->
<g id="node7" class="node"><title>page#3</title>
<ellipse fill="none" stroke="black" cx="424" cy="-72" rx="38.8478" ry="18"></ellipse>
<text text-anchor="middle" x="424" y="-67.8" font-family="Times,serif" font-size="14.00">page#3</text>
</g>
<!-- pages#2&#45;&gt;page#3 -->
<g id="edge6" class="edge"><title>pages#2-&gt;page#3</title>
<path fill="none" stroke="black" d="M336.177,-65.6987C349.187,-65.1854 363.787,-65.1125 377.248,-65.4801"></path>
<polygon fill="black" stroke="black" points="377.154,-68.9789 387.275,-65.847 377.41,-61.9835 377.154,-68.9789"></polygon>
</g>
<!-- page#3&#45;&gt;pages#2 -->
<g id="edge8" class="edge"><title>page#3-&gt;pages#2</title>
<path fill="none" stroke="black" d="M387.275,-78.153C374.571,-78.7451 360.034,-78.8968 346.39,-78.608"></path>
<polygon fill="black" stroke="black" points="346.277,-75.1031 336.177,-78.3013 346.067,-82.1 346.277,-75.1031"></polygon>
</g>
<!-- content#4 -->
<g id="node10" class="node"><title>content#4</title>
<ellipse fill="none" stroke="black" cx="558" cy="-72" rx="49.2396" ry="18"></ellipse>
<text text-anchor="middle" x="558" y="-67.8" font-family="Times,serif" font-size="14.00">content#4</text>
</g>
<!-- page#3&#45;&gt;content#4 -->
<g id="edge10" class="edge"><title>page#3-&gt;content#4</title>
<path fill="none" stroke="black" d="M463.18,-72C474.134,-72 486.339,-72 498.227,-72"></path>
<polygon fill="black" stroke="black" points="498.554,-75.5001 508.554,-72 498.554,-68.5001 498.554,-75.5001"></polygon>
</g>
<!-- Hello World! -->
<g id="node12" class="node"><title>Hello World!</title>
<ellipse fill="none" stroke="black" cx="711" cy="-72" rx="62.5807" ry="18"></ellipse>
<text text-anchor="middle" x="711" y="-67.8" font-family="Times,serif" font-size="14.00">Hello World!</text>
</g>
<!-- content#4&#45;&gt;Hello World! -->
<g id="edge12" class="edge"><title>content#4-&gt;Hello World!</title>
<path fill="none" stroke="black" d="M607.193,-72C617.069,-72 627.666,-72 638.168,-72"></path>
<polygon fill="black" stroke="black" points="638.182,-75.5001 648.182,-72 638.182,-68.5001 638.182,-75.5001"></polygon>
</g>
<!-- pages#12 -->
<g id="node16" class="node"><title>pages#12</title>
<ellipse fill="none" stroke="black" cx="296" cy="-18" rx="47.5158" ry="18"></ellipse>
<text text-anchor="middle" x="296" y="-13.8" font-family="Times,serif" font-size="14.00">pages#12</text>
</g>
<!-- catalog#11&#45;&gt;pages#12 -->
<g id="edge16" class="edge"><title>catalog#11-&gt;pages#12</title>
<path fill="none" stroke="black" d="M211.581,-18C220.284,-18 229.344,-18 238.146,-18"></path>
<polygon fill="black" stroke="black" points="238.326,-21.5001 248.326,-18 238.326,-14.5001 238.326,-21.5001"></polygon>
</g>
<!-- page#13 -->
<g id="node18" class="node"><title>page#13</title>
<ellipse fill="none" stroke="black" cx="424" cy="-18" rx="43.506" ry="18"></ellipse>
<text text-anchor="middle" x="424" y="-13.8" font-family="Times,serif" font-size="14.00">page#13</text>
</g>
<!-- pages#12&#45;&gt;page#13 -->
<g id="edge18" class="edge"><title>pages#12-&gt;page#13</title>
<path fill="none" stroke="black" d="M340.362,-11.5503C350.828,-11.2203 362.096,-11.1623 372.844,-11.3763"></path>
<polygon fill="black" stroke="black" points="372.85,-14.8778 382.946,-11.6648 373.05,-7.88062 372.85,-14.8778"></polygon>
</g>
<!-- page#13&#45;&gt;pages#12 -->
<g id="edge20" class="edge"><title>page#13-&gt;pages#12</title>
<path fill="none" stroke="black" d="M382.946,-24.3352C372.666,-24.7231 361.443,-24.8389 350.599,-24.6828"></path>
<polygon fill="black" stroke="black" points="350.439,-21.1783 340.362,-24.4497 350.28,-28.1765 350.439,-21.1783"></polygon>
</g>
<!-- content#14 -->
<g id="node21" class="node"><title>content#14</title>
<ellipse fill="none" stroke="black" cx="558" cy="-18" rx="53.8963" ry="18"></ellipse>
<text text-anchor="middle" x="558" y="-13.8" font-family="Times,serif" font-size="14.00">content#14</text>
</g>
<!-- page#13&#45;&gt;content#14 -->
<g id="edge22" class="edge"><title>page#13-&gt;content#14</title>
<path fill="none" stroke="black" d="M467.857,-18C476.081,-18 484.854,-18 493.568,-18"></path>
<polygon fill="black" stroke="black" points="493.733,-21.5001 503.733,-18 493.733,-14.5001 493.733,-21.5001"></polygon>
</g>
<!-- Bye World! -->
<g id="node23" class="node"><title>Bye World!</title>
<ellipse fill="none" stroke="black" cx="711" cy="-18" rx="56.7833" ry="18"></ellipse>
<text text-anchor="middle" x="711" y="-13.8" font-family="Times,serif" font-size="14.00">Bye World!</text>
</g>
<!-- content#14&#45;&gt;Bye World! -->
<g id="edge24" class="edge"><title>content#14-&gt;Bye World!</title>
<path fill="none" stroke="black" d="M612.237,-18C622.468,-18 633.298,-18 643.878,-18"></path>
<polygon fill="black" stroke="black" points="643.918,-21.5001 653.918,-18 643.918,-14.5001 643.918,-21.5001"></polygon>
</g>
</g>
</svg>